<?xml version="1.0" encoding="UTF-8"?>
<svg xmlns="http://www.w3.org/2000/svg" xmlns:xlink="http://www.w3.org/1999/xlink" width="200px" height="200px" viewBox="0 0 200 200" version="1.1">
<g id="surface1">
<path style=" stroke:none;fill-rule:nonzero;fill:rgb(100%,41.568627%,43.529412%);fill-opacity:1;" d="M 19.648438 16.773438 C 19.648438 16.738281 19.648438 16.703125 19.648438 16.667969 L 17.941406 17.703125 C 17.65625 17.230469 17.804688 16.617188 18.277344 16.328125 C 18.75 16.042969 19.363281 16.195312 19.648438 16.667969 L 19.648438 18.335938 C 19.1875 18.335938 18.816406 17.960938 18.816406 17.5 C 18.816406 17.039062 19.1875 16.667969 19.648438 16.667969 L 21.359375 17.703125 C 21.644531 17.230469 21.496094 16.617188 21.023438 16.328125 C 20.550781 16.042969 19.9375 16.195312 19.648438 16.667969 L 21.359375 15.632812 C 21.644531 16.101562 21.496094 16.71875 21.023438 17.003906 C 20.550781 17.289062 19.9375 17.136719 19.648438 16.667969 L 19.648438 18.4375 C 19.160156 18.609375 18.625 18.351562 18.453125 17.863281 C 18.28125 17.375 18.535156 16.839844 19.023438 16.667969 Z M 19.648438 16.773438 "/>
<path style=" stroke:none;fill-rule:nonzero;fill:rgb(34.117647%,37.647059%,43.529412%);fill-opacity:1;" d="M 153.710938 49.445312 L 137.550781 64.648438 C 137.546875 60.914062 137.527344 57.21875 137.585938 53.214844 C 110.1875 41.773438 85.507812 42.375 62.566406 52.023438 C 62.511719 55.648438 62.53125 59.328125 62.558594 63.011719 L 62.488281 63.246094 L 46.289062 49.445312 L 100.535156 25.128906 Z M 153.710938 49.445312 "/>
<path style=" stroke:none;fill-rule:nonzero;fill:rgb(25.490196%,29.019608%,33.72549%);fill-opacity:1;" d="M 100.59375 29.035156 L 150.9375 52.058594 L 153.710938 49.445312 L 100.535156 25.128906 L 46.289062 49.445312 L 49.3125 52.023438 Z M 100.59375 29.035156 "/>
<path style=" stroke:none;fill-rule:nonzero;fill:rgb(25.490196%,29.019608%,33.72549%);fill-opacity:1;" d="M 137.648438 57.117188 C 137.613281 57.105469 137.582031 57.09375 137.550781 57.078125 C 137.539062 59.65625 137.550781 62.144531 137.550781 64.648438 L 137.605469 64.597656 C 137.601562 62.171875 137.605469 59.710938 137.648438 57.117188 Z M 137.648438 57.117188 "/>
<path style=" stroke:none;fill-rule:nonzero;fill:rgb(19.607843%,19.215686%,24.705882%);fill-opacity:1;" d="M 137.550781 64.648438 C 137.558594 68.136719 137.546875 71.65625 137.433594 75.488281 C 112.363281 67.71875 87.429688 68.511719 62.566406 75.488281 C 62.625 71.371094 62.589844 67.191406 62.558594 63.011719 C 62.53125 59.328125 62.507812 55.648438 62.566406 52.023438 C 85.507812 42.375 110.1875 41.773438 137.589844 53.210938 C 137.527344 57.21875 137.550781 60.914062 137.550781 64.648438 Z M 137.550781 64.648438 "/>
<path style=" stroke:none;fill-rule:nonzero;fill:rgb(14.509804%,14.509804%,18.823529%);fill-opacity:1;" d="M 65.605469 74.671875 C 65.617188 71.667969 65.59375 68.640625 65.570312 65.617188 C 65.542969 61.933594 65.519531 58.253906 65.578125 54.625 C 87.671875 45.335938 111.375 44.441406 137.570312 54.601562 C 137.574219 54.140625 137.582031 53.679688 137.585938 53.214844 C 110.1875 41.773438 85.507812 42.375 62.566406 52.023438 C 62.511719 55.648438 62.53125 59.328125 62.558594 63.011719 C 62.589844 67.191406 62.625 71.371094 62.566406 75.488281 C 63.578125 75.203125 64.59375 74.933594 65.605469 74.671875 Z M 65.605469 74.671875 "/>
<path style=" stroke:none;fill-rule:nonzero;fill:rgb(0%,0%,0%);fill-opacity:1;" d="M 137.550781 66.277344 C 137.117188 66.277344 136.6875 66.105469 136.367188 65.765625 C 135.75 65.109375 135.78125 64.078125 136.4375 63.460938 L 150.832031 49.921875 L 100.527344 26.917969 L 49.304688 49.878906 L 62.839844 61.40625 C 62.90625 61.417969 62.96875 61.433594 63.035156 61.453125 C 63.894531 61.71875 64.378906 62.628906 64.113281 63.488281 L 64.042969 63.722656 C 63.882812 64.246094 63.46875 64.65625 62.945312 64.808594 C 62.417969 64.960938 61.847656 64.839844 61.433594 64.484375 L 45.234375 50.6875 C 44.808594 50.324219 44.597656 49.769531 44.679688 49.214844 C 44.757812 48.664062 45.113281 48.191406 45.625 47.960938 L 99.867188 23.644531 C 100.296875 23.453125 100.785156 23.457031 101.210938 23.648438 L 154.386719 47.964844 C 154.878906 48.191406 155.230469 48.648438 155.316406 49.183594 C 155.40625 49.71875 155.21875 50.261719 154.824219 50.632812 L 138.667969 65.835938 C 138.351562 66.128906 137.953125 66.277344 137.550781 66.277344 Z M 137.550781 66.277344 "/>
<path style=" stroke:none;fill-rule:nonzero;fill:rgb(0%,0%,0%);fill-opacity:1;" d="M 62.566406 77.117188 C 62.210938 77.117188 61.859375 77 61.570312 76.777344 C 61.164062 76.464844 60.929688 75.976562 60.9375 75.464844 C 60.996094 71.496094 60.964844 67.390625 60.933594 63.421875 L 60.929688 63.023438 C 60.90625 59.800781 60.878906 55.789062 60.9375 51.996094 C 60.949219 51.351562 61.339844 50.773438 61.933594 50.519531 C 73.675781 45.585938 85.773438 43.082031 97.882812 43.082031 C 110.929688 43.082031 124.5 45.984375 138.214844 51.710938 C 138.828125 51.96875 139.226562 52.570312 139.214844 53.238281 C 139.164062 56.492188 139.171875 59.589844 139.175781 62.585938 L 139.179688 64.648438 C 139.1875 67.96875 139.175781 71.589844 139.0625 75.535156 C 139.046875 76.042969 138.796875 76.515625 138.382812 76.8125 C 137.96875 77.109375 137.4375 77.191406 136.953125 77.042969 C 125.261719 73.417969 113.140625 71.582031 100.929688 71.582031 C 88.707031 71.582031 75.949219 73.421875 63.003906 77.054688 C 62.859375 77.097656 62.710938 77.117188 62.566406 77.117188 Z M 64.179688 53.113281 C 64.140625 56.550781 64.164062 60.097656 64.1875 63 L 64.1875 63.398438 C 64.214844 66.667969 64.242188 70.035156 64.214844 73.347656 C 76.730469 70.015625 89.070312 68.328125 100.925781 68.328125 C 112.753906 68.328125 124.492188 70.003906 135.859375 73.316406 C 135.921875 70.226562 135.929688 67.339844 135.925781 64.652344 L 135.921875 62.589844 C 135.914062 59.921875 135.910156 57.171875 135.945312 54.296875 C 122.976562 49.015625 110.171875 46.335938 97.882812 46.335938 C 86.542969 46.335938 75.210938 48.617188 64.179688 53.113281 Z M 64.179688 53.113281 "/>
<path style=" stroke:none;fill-rule:nonzero;fill:rgb(0%,0%,0%);fill-opacity:1;" d="M 153.710938 85.351562 C 152.8125 85.351562 152.082031 84.621094 152.082031 83.722656 L 152.082031 51.171875 C 152.082031 50.273438 152.8125 49.542969 153.710938 49.542969 C 154.609375 49.542969 155.339844 50.273438 155.339844 51.171875 L 155.339844 83.722656 C 155.339844 84.621094 154.609375 85.351562 153.710938 85.351562 Z M 153.710938 85.351562 "/>
<path style=" stroke:none;fill-rule:nonzero;fill:rgb(0%,0%,0%);fill-opacity:1;" d="M 153.710938 176.496094 L 43.035156 176.496094 C 42.136719 176.496094 41.40625 175.769531 41.40625 174.871094 C 41.40625 173.96875 42.136719 173.242188 43.035156 173.242188 L 153.710938 173.242188 C 154.609375 173.242188 155.339844 173.96875 155.339844 174.871094 C 155.339844 175.769531 154.609375 176.496094 153.710938 176.496094 Z M 153.710938 176.496094 "/>
<path style=" stroke:none;fill-rule:nonzero;fill:rgb(36.862745%,69.803922%,89.803922%);fill-opacity:1;" d="M 100.394531 150.554688 L 100.707031 169.96875 C 93.367188 170.085938 86.765625 162.722656 82.695312 151.375 C 88.175781 150.84375 93.984375 150.554688 100 150.554688 C 100.128906 150.554688 100.265625 150.554688 100.394531 150.554688 Z M 100.394531 150.554688 "/>
<path style=" stroke:none;fill-rule:nonzero;fill:rgb(32.156863%,62.352941%,77.647059%);fill-opacity:1;" d="M 100.394531 150.554688 L 100.707031 169.96875 C 93.367188 170.085938 86.765625 162.722656 82.695312 151.375 C 88.175781 150.84375 93.984375 150.554688 100 150.554688 C 100.128906 150.554688 100.265625 150.554688 100.394531 150.554688 Z M 100.394531 150.554688 "/>
<path style=" stroke:none;fill-rule:nonzero;fill:rgb(36.862745%,69.803922%,89.803922%);fill-opacity:1;" d="M 100.429688 152.90625 C 95.609375 152.992188 90.933594 153.261719 86.480469 153.695312 C 88.925781 160.511719 92.285156 165.886719 96.167969 169.070312 C 96.101562 169.042969 96.039062 169.011719 95.972656 168.984375 C 98.550781 171.09375 101.359375 172.242188 104.289062 172.195312 L 103.976562 152.78125 C 103.84375 152.78125 103.710938 152.78125 103.582031 152.78125 C 102.523438 152.78125 101.472656 152.792969 100.429688 152.808594 Z M 100.429688 152.90625 "/>
<path style=" stroke:none;fill-rule:nonzero;fill:rgb(43.921569%,82.745098%,95.294118%);fill-opacity:1;" d="M 117.898438 151.433594 C 114.171875 162.554688 107.910156 169.851562 100.707031 169.96875 L 100.394531 150.554688 C 106.488281 150.570312 112.367188 150.875 117.898438 151.433594 Z M 117.898438 151.433594 "/>
<path style=" stroke:none;fill-rule:nonzero;fill:rgb(32.941176%,73.333333%,82.745098%);fill-opacity:1;" d="M 115.335938 151.195312 C 111.9375 160.496094 106.714844 166.851562 100.675781 168.109375 L 100.707031 169.96875 C 107.910156 169.851562 114.171875 162.554688 117.898438 151.433594 C 117.054688 151.347656 116.199219 151.269531 115.335938 151.195312 Z M 115.335938 151.195312 "/>
<path style=" stroke:none;fill-rule:nonzero;fill:rgb(36.862745%,69.803922%,89.803922%);fill-opacity:1;" d="M 137.5 154.804688 C 129.03125 165.867188 115.773438 173.09375 100.761719 173.335938 C 100.5 173.339844 100.246094 173.34375 99.988281 173.34375 C 84.738281 173.34375 71.136719 166.085938 62.5 154.804688 C 68.421875 153.273438 75.253906 152.097656 82.695312 151.375 C 86.765625 162.722656 93.371094 170.085938 100.707031 169.96875 C 107.910156 169.851562 114.171875 162.554688 117.898438 151.433594 C 125.109375 152.160156 131.734375 153.3125 137.5 154.804688 Z M 137.5 154.804688 "/>
<path style=" stroke:none;fill-rule:nonzero;fill:rgb(32.156863%,62.352941%,77.647059%);fill-opacity:1;" d="M 117.898438 151.433594 C 117.648438 152.179688 117.386719 152.910156 117.113281 153.621094 C 122.476562 154.328125 127.453125 155.277344 131.910156 156.429688 C 126.453125 163.5625 119.003906 169.097656 110.378906 172.195312 C 121.375 169.730469 130.894531 163.433594 137.5 154.804688 C 131.734375 153.3125 125.109375 152.160156 117.898438 151.433594 Z M 117.898438 151.433594 "/>
<path style=" stroke:none;fill-rule:nonzero;fill:rgb(32.156863%,62.352941%,77.647059%);fill-opacity:1;" d="M 67.75 156.429688 C 72.472656 155.210938 77.777344 154.21875 83.503906 153.496094 C 83.226562 152.804688 82.957031 152.097656 82.695312 151.375 C 75.253906 152.097656 68.421875 153.273438 62.5 154.804688 C 68.929688 163.199219 78.109375 169.363281 88.671875 171.96875 C 80.324219 168.835938 73.085938 163.402344 67.75 156.429688 Z M 67.75 156.429688 "/>
<path style=" stroke:none;fill-rule:nonzero;fill:rgb(43.921569%,82.745098%,95.294118%);fill-opacity:1;" d="M 147.195312 125.378906 C 147.375 136.429688 143.738281 146.660156 137.5 154.804688 C 131.734375 153.3125 125.109375 152.160156 117.902344 151.433594 C 120.332031 144.199219 121.6875 135.339844 121.535156 125.792969 C 121.535156 125.789062 121.535156 125.78125 121.535156 125.78125 Z M 147.195312 125.378906 "/>
<path style=" stroke:none;fill-rule:nonzero;fill:rgb(32.941176%,73.333333%,82.745098%);fill-opacity:1;" d="M 147.195312 125.378906 L 121.535156 125.78125 C 121.535156 125.78125 121.535156 125.789062 121.535156 125.792969 C 121.550781 126.816406 121.546875 127.828125 121.527344 128.835938 L 144.019531 128.484375 C 144.175781 138.082031 141.453125 147.058594 136.648438 154.585938 C 136.933594 154.660156 137.21875 154.730469 137.5 154.804688 C 143.738281 146.660156 147.375 136.429688 147.195312 125.378906 Z M 147.195312 125.378906 "/>
<path style=" stroke:none;fill-rule:nonzero;fill:rgb(36.862745%,69.803922%,89.803922%);fill-opacity:1;" d="M 121.535156 125.78125 C 121.535156 125.785156 121.535156 125.789062 121.535156 125.792969 C 121.6875 135.339844 120.332031 144.199219 117.902344 151.433594 C 112.367188 150.875 106.488281 150.570312 100.394531 150.554688 L 100 126.117188 Z M 121.535156 125.78125 "/>
<path style=" stroke:none;fill-rule:nonzero;fill:rgb(32.156863%,62.352941%,77.647059%);fill-opacity:1;" d="M 121.535156 125.792969 C 121.535156 125.789062 121.535156 125.78125 121.535156 125.78125 L 100 126.117188 L 100.042969 128.78125 L 118.765625 128.484375 C 118.765625 128.488281 118.765625 128.496094 118.765625 128.5 C 118.898438 136.8125 117.890625 144.601562 116.019531 151.257812 C 116.652344 151.3125 117.277344 151.371094 117.902344 151.433594 C 120.332031 144.199219 121.6875 135.339844 121.535156 125.792969 Z M 121.535156 125.792969 "/>
<path style=" stroke:none;fill-rule:nonzero;fill:rgb(43.921569%,82.745098%,95.294118%);fill-opacity:1;" d="M 100 126.117188 L 100.394531 150.554688 C 100.265625 150.554688 100.128906 150.554688 100 150.554688 C 93.984375 150.554688 88.171875 150.839844 82.695312 151.375 C 80.167969 144.335938 78.613281 135.761719 78.46875 126.488281 C 78.46875 126.480469 78.46875 126.46875 78.46875 126.457031 Z M 100 126.117188 "/>
<path style=" stroke:none;fill-rule:nonzero;fill:rgb(32.941176%,73.333333%,82.745098%);fill-opacity:1;" d="M 81.140625 129.175781 C 81.140625 129.164062 81.140625 129.152344 81.140625 129.140625 L 100.042969 128.84375 L 100 126.117188 L 78.46875 126.457031 C 78.46875 126.464844 78.46875 126.480469 78.46875 126.488281 C 78.613281 135.761719 80.167969 144.335938 82.695312 151.375 C 83.269531 151.320312 83.847656 151.269531 84.429688 151.21875 C 82.460938 144.761719 81.265625 137.234375 81.140625 129.175781 Z M 81.140625 129.175781 "/>
<path style=" stroke:none;fill-rule:nonzero;fill:rgb(36.862745%,69.803922%,89.803922%);fill-opacity:1;" d="M 82.695312 151.375 C 75.253906 152.097656 68.421875 153.273438 62.5 154.804688 C 56.566406 147.054688 52.976562 137.410156 52.804688 126.902344 C 52.804688 126.886719 52.804688 126.875 52.804688 126.855469 L 78.46875 126.457031 C 78.46875 126.464844 78.46875 126.480469 78.46875 126.488281 C 78.613281 135.761719 80.167969 144.335938 82.695312 151.375 Z M 82.695312 151.375 "/>
<path style=" stroke:none;fill-rule:nonzero;fill:rgb(32.156863%,62.352941%,77.647059%);fill-opacity:1;" d="M 56.0625 130.238281 C 56.0625 130.222656 56.0625 130.210938 56.0625 130.195312 L 78.582031 129.84375 C 78.523438 128.734375 78.484375 127.617188 78.46875 126.488281 C 78.46875 126.480469 78.46875 126.46875 78.46875 126.457031 L 52.804688 126.855469 C 52.804688 126.875 52.804688 126.886719 52.804688 126.902344 C 52.976562 137.410156 56.566406 147.054688 62.5 154.804688 C 62.761719 154.734375 63.027344 154.667969 63.296875 154.601562 C 58.839844 147.539062 56.207031 139.203125 56.0625 130.238281 Z M 56.0625 130.238281 "/>
<path style=" stroke:none;fill-rule:nonzero;fill:rgb(43.921569%,82.745098%,95.294118%);fill-opacity:1;" d="M 60.558594 100.210938 C 66.511719 101.882812 73.488281 103.1875 81.140625 104.003906 C 79.320312 110.585938 78.335938 118.269531 78.46875 126.457031 L 52.804688 126.855469 C 52.65625 117.023438 55.523438 107.847656 60.558594 100.210938 Z M 60.558594 100.210938 "/>
<path style=" stroke:none;fill-rule:nonzero;fill:rgb(32.941176%,73.333333%,82.745098%);fill-opacity:1;" d="M 62.113281 104.003906 C 67.433594 105.496094 73.570312 106.695312 80.273438 107.515625 C 80.539062 106.316406 80.824219 105.140625 81.140625 104.003906 C 73.484375 103.183594 66.511719 101.882812 60.554688 100.210938 C 55.523438 107.847656 52.65625 117.023438 52.804688 126.859375 L 54.457031 126.832031 C 55 118.445312 57.738281 110.640625 62.113281 104.003906 Z M 62.113281 104.003906 "/>
<path style=" stroke:none;fill-rule:nonzero;fill:rgb(36.862745%,69.803922%,89.803922%);fill-opacity:1;" d="M 147.195312 125.378906 L 121.535156 125.78125 C 121.40625 117.855469 120.25 110.441406 118.335938 104.058594 C 126.199219 103.246094 133.355469 101.921875 139.445312 100.210938 C 144.210938 107.441406 147.042969 116.078125 147.195312 125.378906 Z M 147.195312 125.378906 "/>
<path style=" stroke:none;fill-rule:nonzero;fill:rgb(32.156863%,62.352941%,77.647059%);fill-opacity:1;" d="M 137.816406 103.628906 C 141.996094 109.976562 144.691406 117.398438 145.390625 125.40625 L 147.195312 125.378906 C 147.042969 116.078125 144.210938 107.441406 139.445312 100.210938 C 133.355469 101.921875 126.199219 103.246094 118.335938 104.058594 C 118.640625 105.078125 118.925781 106.128906 119.191406 107.199219 C 126.082031 106.378906 132.375 105.160156 137.816406 103.628906 Z M 137.816406 103.628906 "/>
<path style=" stroke:none;fill-rule:nonzero;fill:rgb(43.921569%,82.745098%,95.294118%);fill-opacity:1;" d="M 121.535156 125.78125 L 100 126.117188 L 99.660156 104.980469 C 99.773438 104.980469 99.886719 104.980469 100 104.980469 C 106.398438 104.980469 112.554688 104.660156 118.335938 104.058594 C 120.25 110.441406 121.40625 117.855469 121.535156 125.78125 Z M 121.535156 125.78125 "/>
<path style=" stroke:none;fill-rule:nonzero;fill:rgb(32.941176%,73.333333%,82.745098%);fill-opacity:1;" d="M 116.289062 107.042969 C 117.964844 112.625 119.058594 119 119.390625 125.8125 L 121.535156 125.78125 C 121.40625 117.855469 120.25 110.441406 118.335938 104.058594 C 112.554688 104.660156 106.398438 104.984375 100 104.984375 C 99.886719 104.984375 99.773438 104.984375 99.660156 104.984375 L 99.707031 107.957031 C 105.476562 107.902344 111.039062 107.589844 116.289062 107.042969 Z M 116.289062 107.042969 "/>
<path style=" stroke:none;fill-rule:nonzero;fill:rgb(36.862745%,69.803922%,89.803922%);fill-opacity:1;" d="M 99.660156 104.984375 L 100 126.117188 L 78.46875 126.457031 C 78.335938 118.269531 79.320312 110.589844 81.140625 104.003906 C 86.96875 104.628906 93.195312 104.96875 99.660156 104.984375 Z M 99.660156 104.984375 "/>
<path style=" stroke:none;fill-rule:nonzero;fill:rgb(32.156863%,62.352941%,77.647059%);fill-opacity:1;" d="M 83.476562 107.339844 C 88.617188 107.890625 94.0625 108.21875 99.710938 108.300781 L 99.660156 104.984375 C 93.195312 104.96875 86.96875 104.628906 81.140625 104.003906 C 79.320312 110.585938 78.335938 118.269531 78.46875 126.457031 L 80.8125 126.421875 C 80.964844 119.5 81.90625 113.011719 83.476562 107.339844 Z M 83.476562 107.339844 "/>
<path style=" stroke:none;fill-rule:nonzero;fill:rgb(43.921569%,82.745098%,95.294118%);fill-opacity:1;" d="M 99.292969 82.3125 L 99.660156 104.984375 C 93.195312 104.96875 86.96875 104.628906 81.140625 104.003906 C 84.6875 91.132812 91.429688 82.441406 99.292969 82.3125 Z M 99.292969 82.3125 "/>
<path style=" stroke:none;fill-rule:nonzero;fill:rgb(32.941176%,73.333333%,82.745098%);fill-opacity:1;" d="M 99.335938 84.976562 L 99.292969 82.3125 C 91.429688 82.441406 84.6875 91.132812 81.140625 104.003906 C 82.019531 104.097656 82.910156 104.183594 83.808594 104.265625 C 87.160156 93.65625 92.769531 86.308594 99.335938 84.976562 Z M 99.335938 84.976562 "/>
<path style=" stroke:none;fill-rule:nonzero;fill:rgb(36.862745%,69.803922%,89.803922%);fill-opacity:1;" d="M 99.292969 82.3125 C 107.292969 82.183594 114.410156 90.945312 118.335938 104.058594 C 112.554688 104.660156 106.398438 104.984375 100 104.984375 C 99.886719 104.984375 99.773438 104.984375 99.660156 104.984375 Z M 99.292969 82.3125 "/>
<path style=" stroke:none;fill-rule:nonzero;fill:rgb(32.156863%,62.352941%,77.647059%);fill-opacity:1;" d="M 116.101562 104.273438 C 116.855469 104.207031 117.597656 104.136719 118.335938 104.058594 C 114.410156 90.945312 107.292969 82.183594 99.292969 82.3125 L 99.328125 84.382812 C 106.265625 85.378906 112.386719 93.050781 116.101562 104.273438 Z M 116.101562 104.273438 "/>
<path style=" stroke:none;fill-rule:nonzero;fill:rgb(43.921569%,82.745098%,95.294118%);fill-opacity:1;" d="M 99.238281 78.949219 C 116 78.675781 130.859375 87.175781 139.445312 100.210938 C 133.355469 101.921875 126.199219 103.246094 118.335938 104.058594 C 114.410156 90.945312 107.292969 82.183594 99.292969 82.3125 Z M 99.238281 78.949219 "/>
<path style=" stroke:none;fill-rule:nonzero;fill:rgb(32.941176%,73.333333%,82.745098%);fill-opacity:1;" d="M 136.300781 101.035156 C 137.375 100.769531 138.425781 100.496094 139.445312 100.210938 C 130.859375 87.175781 116 78.675781 99.238281 78.949219 L 99.28125 81.511719 C 114.476562 81.898438 127.933594 89.484375 136.300781 101.035156 Z M 136.300781 101.035156 "/>
<path style=" stroke:none;fill-rule:nonzero;fill:rgb(36.862745%,69.803922%,89.803922%);fill-opacity:1;" d="M 99.238281 78.949219 L 99.292969 82.3125 C 91.429688 82.441406 84.6875 91.132812 81.140625 104.003906 C 73.484375 103.183594 66.511719 101.882812 60.554688 100.210938 C 68.851562 87.621094 83.023438 79.207031 99.238281 78.949219 Z M 99.238281 78.949219 "/>
<path style=" stroke:none;fill-rule:nonzero;fill:rgb(32.156863%,62.352941%,77.647059%);fill-opacity:1;" d="M 99.289062 82.011719 L 99.238281 78.945312 C 83.023438 79.207031 68.851562 87.621094 60.554688 100.210938 C 61.578125 100.496094 62.632812 100.773438 63.714844 101.039062 C 71.867188 90.0625 84.683594 82.726562 99.289062 82.011719 Z M 99.289062 82.011719 "/>
<path style=" stroke:none;fill-rule:nonzero;fill:rgb(0%,0%,0%);fill-opacity:1;" d="M 100.535156 171.597656 C 92.824219 171.597656 85.585938 164.242188 81.164062 151.925781 C 78.480469 144.441406 76.984375 135.65625 76.839844 126.515625 L 76.839844 126.457031 C 76.710938 118.421875 77.65625 110.5 79.570312 103.570312 C 83.484375 89.375 90.847656 80.820312 99.269531 80.683594 C 99.335938 80.683594 99.402344 80.683594 99.46875 80.683594 C 107.964844 80.683594 115.601562 89.246094 119.898438 103.589844 C 121.90625 110.296875 123.035156 117.960938 123.160156 125.753906 C 123.160156 125.761719 123.160156 125.785156 123.160156 125.792969 C 123.3125 135.210938 122.027344 144.265625 119.445312 151.953125 C 115.296875 164.308594 108.476562 171.46875 100.734375 171.597656 Z M 99.46875 83.9375 L 99.320312 83.941406 C 92.527344 84.050781 86.164062 91.902344 82.707031 104.433594 C 80.875 111.070312 79.972656 118.675781 80.09375 126.429688 L 80.09375 126.488281 C 80.234375 135.25 81.664062 143.675781 84.226562 150.824219 C 88.164062 161.792969 94.257812 168.34375 100.535156 168.34375 L 100.679688 168.34375 C 106.871094 168.242188 112.730469 161.726562 116.355469 150.917969 C 118.824219 143.574219 120.050781 134.898438 119.90625 125.820312 C 119.90625 125.8125 119.90625 125.789062 119.90625 125.78125 C 119.785156 118.308594 118.703125 110.949219 116.777344 104.527344 C 112.976562 91.828125 106.34375 83.9375 99.46875 83.9375 Z M 99.46875 83.9375 "/>
<path style=" stroke:none;fill-rule:nonzero;fill:rgb(0%,0%,0%);fill-opacity:1;" d="M 52.804688 128.484375 C 51.917969 128.484375 51.191406 127.773438 51.179688 126.882812 C 51.164062 125.984375 51.882812 125.242188 52.78125 125.230469 L 147.167969 123.753906 C 147.175781 123.75 147.1875 123.75 147.195312 123.75 C 148.082031 123.75 148.808594 124.464844 148.820312 125.355469 C 148.835938 126.253906 148.117188 126.992188 147.21875 127.007812 L 52.832031 128.484375 C 52.824219 128.484375 52.8125 128.484375 52.804688 128.484375 Z M 52.804688 128.484375 "/>
<path style=" stroke:none;fill-rule:nonzero;fill:rgb(0%,0%,0%);fill-opacity:1;" d="M 62.5 156.429688 C 62.011719 156.429688 61.527344 156.210938 61.207031 155.792969 C 54.816406 147.449219 51.347656 137.46875 51.179688 126.929688 L 51.179688 126.855469 C 51.027344 117.035156 53.800781 107.503906 59.199219 99.3125 C 59.691406 98.5625 60.703125 98.355469 61.453125 98.851562 C 62.203125 99.347656 62.410156 100.355469 61.914062 101.105469 C 56.882812 108.746094 54.292969 117.640625 54.433594 126.832031 L 54.433594 126.902344 C 54.59375 136.710938 57.828125 146.027344 63.792969 153.8125 C 64.339844 154.527344 64.203125 155.546875 63.488281 156.09375 C 63.195312 156.320312 62.847656 156.429688 62.5 156.429688 Z M 62.5 156.429688 "/>
<path style=" stroke:none;fill-rule:nonzero;fill:rgb(0%,0%,0%);fill-opacity:1;" d="M 137.5 156.429688 C 137.152344 156.429688 136.804688 156.320312 136.511719 156.09375 C 135.796875 155.550781 135.660156 154.527344 136.207031 153.8125 C 142.5 145.597656 145.734375 135.777344 145.566406 125.40625 C 145.425781 116.726562 142.839844 108.324219 138.085938 101.105469 C 137.589844 100.355469 137.796875 99.34375 138.546875 98.851562 C 139.300781 98.355469 140.308594 98.5625 140.800781 99.316406 C 145.898438 107.050781 148.671875 116.054688 148.820312 125.351562 C 149 136.464844 145.535156 146.988281 138.792969 155.792969 C 138.472656 156.210938 137.988281 156.429688 137.5 156.429688 Z M 137.5 156.429688 "/>
<path style=" stroke:none;fill-rule:nonzero;fill:rgb(0%,0%,0%);fill-opacity:1;" d="M 100 106.609375 L 99.660156 106.609375 C 93.253906 106.597656 86.96875 106.265625 80.964844 105.621094 C 73.289062 104.800781 66.277344 103.507812 60.117188 101.777344 C 59.617188 101.636719 59.214844 101.265625 59.03125 100.78125 C 58.851562 100.292969 58.910156 99.75 59.195312 99.316406 C 68.097656 85.800781 83.058594 77.578125 99.210938 77.320312 C 115.996094 77.046875 131.582031 85.3125 140.800781 99.316406 C 141.085938 99.75 141.148438 100.292969 140.96875 100.777344 C 140.785156 101.265625 140.382812 101.636719 139.882812 101.777344 C 133.570312 103.550781 126.378906 104.863281 118.503906 105.675781 C 112.558594 106.296875 106.332031 106.609375 100 106.609375 Z M 63.214844 99.238281 C 68.652344 100.625 74.726562 101.679688 81.3125 102.382812 C 87.203125 103.015625 93.375 103.34375 99.660156 103.355469 L 100 103.355469 C 106.222656 103.355469 112.335938 103.046875 118.167969 102.4375 C 124.949219 101.742188 131.199219 100.664062 136.789062 99.238281 C 128.207031 87.507812 114.625 80.570312 100.015625 80.570312 C 99.765625 80.570312 99.515625 80.570312 99.265625 80.574219 C 84.945312 80.804688 71.632812 87.738281 63.214844 99.238281 Z M 63.214844 99.238281 "/>
<path style=" stroke:none;fill-rule:nonzero;fill:rgb(0%,0%,0%);fill-opacity:1;" d="M 99.988281 174.96875 C 84.671875 174.96875 70.535156 167.980469 61.207031 155.792969 C 60.875 155.359375 60.785156 154.789062 60.960938 154.273438 C 61.140625 153.757812 61.566406 153.363281 62.09375 153.226562 C 68.207031 151.648438 75.085938 150.480469 82.539062 149.753906 C 88.175781 149.207031 94.050781 148.929688 100 148.929688 L 100.394531 148.929688 C 106.429688 148.941406 112.371094 149.238281 118.066406 149.816406 C 125.289062 150.542969 131.964844 151.691406 137.90625 153.226562 C 138.4375 153.363281 138.859375 153.757812 139.039062 154.273438 C 139.21875 154.789062 139.125 155.359375 138.792969 155.792969 C 129.65625 167.734375 115.804688 174.722656 100.789062 174.960938 C 100.511719 174.964844 100.25 174.96875 99.988281 174.96875 Z M 65.378906 155.773438 C 74.058594 165.9375 86.535156 171.714844 99.988281 171.714844 C 100.234375 171.714844 100.484375 171.710938 100.734375 171.707031 C 113.90625 171.496094 126.121094 165.722656 134.621094 155.773438 C 129.476562 154.578125 123.808594 153.664062 117.738281 153.054688 C 112.152344 152.488281 106.316406 152.195312 100.390625 152.183594 L 100 152.183594 C 94.15625 152.183594 88.386719 152.457031 82.851562 152.996094 C 76.558594 153.605469 70.695312 154.539062 65.378906 155.773438 Z M 65.378906 155.773438 "/>
<path style=" stroke:none;fill-rule:nonzero;fill:rgb(0%,0%,0%);fill-opacity:1;" d="M 100.707031 171.597656 C 99.820312 171.597656 99.09375 170.886719 99.078125 169.996094 L 97.609375 78.972656 C 97.597656 78.074219 98.3125 77.335938 99.210938 77.320312 C 100.121094 77.300781 100.851562 78.023438 100.867188 78.921875 L 102.332031 169.941406 C 102.347656 170.839844 101.632812 171.582031 100.730469 171.597656 C 100.722656 171.597656 100.714844 171.597656 100.707031 171.597656 Z M 100.707031 171.597656 "/>
</g>
</svg>
